<svg id="Layer_1" data-name="Layer 1" xmlns="http://www.w3.org/2000/svg" viewBox="0 0 661.8 266.1"><title>final</title><path d="M71.8.9A3.1,3.1,0,0,0,69.7,0H3A3,3,0,0,0,.9.9,3.3,3.3,0,0,0,0,3V56a2.9,2.9,0,0,0,.9,2.1A2.9,2.9,0,0,0,3,59H69.7a2.9,2.9,0,0,0,2.1-.9,2.7,2.7,0,0,0,.9-2.1V3A3,3,0,0,0,71.8.9ZM69.8,56a.3.3,0,0,1-.1.2v0H2.9V10.9h67ZM68.6,5.4a1.6,1.6,0,0,1-1.7,1.7H20a1.8,1.8,0,0,1-1.7-1.7A1.8,1.8,0,0,1,20,3.7H66.9A1.7,1.7,0,0,1,68.6,5.4ZM15,5.4a1.1,1.1,0,0,1-1.2,1.1,1.1,1.1,0,0,1-1.1-1.1,1.1,1.1,0,0,1,1.1-1.2A1.2,1.2,0,0,1,15,5.4Zm-3.4,0a1.1,1.1,0,0,1-1.2,1.1A1.1,1.1,0,0,1,9.3,5.4a1.1,1.1,0,0,1,1.1-1.2A1.2,1.2,0,0,1,11.6,5.4ZM7,4.2A1.2,1.2,0,0,1,8.2,5.4,1.1,1.1,0,0,1,7,6.5,1.1,1.1,0,0,1,5.9,5.4,1.1,1.1,0,0,1,7,4.2Z" style="fill:#707070"/><path d="M154.6.9a3.6,3.6,0,0,0-2.1-.9H85.8a2.7,2.7,0,0,0-2.1.9A2.9,2.9,0,0,0,82.8,3V56a3.3,3.3,0,0,0,.9,2.1,3,3,0,0,0,2.1.9h66.7a3.1,3.1,0,0,0,3-3V3A3.6,3.6,0,0,0,154.6.9Zm-2,55.1a.2.2,0,0,1-.2.2v0H85.6V10.9h67ZM151.4,5.4a1.7,1.7,0,0,1-1.7,1.7h-47A1.8,1.8,0,0,1,101,5.4a1.8,1.8,0,0,1,1.7-1.7h47A1.8,1.8,0,0,1,151.4,5.4Zm-53.7,0a1.1,1.1,0,0,1-1.1,1.1,1.1,1.1,0,0,1-1.2-1.1,1.2,1.2,0,0,1,1.2-1.2A1.1,1.1,0,0,1,97.7,5.4Zm-3.4,0a1.1,1.1,0,0,1-1.1,1.1A1.1,1.1,0,0,1,92,5.4a1.2,1.2,0,0,1,1.2-1.2A1.1,1.1,0,0,1,94.3,5.4ZM89.8,4.2a1.1,1.1,0,0,1,1.1,1.2,1.1,1.1,0,0,1-1.1,1.1,1.1,1.1,0,0,1-1.2-1.1A1.2,1.2,0,0,1,89.8,4.2Z" style="fill:#707070"/><path d="M237.3.9a3.3,3.3,0,0,0-2.1-.9H168.5a2.9,2.9,0,0,0-2.1.9,2.9,2.9,0,0,0-.9,2.1V56a3.2,3.2,0,0,0,.8,2.1,3.1,3.1,0,0,0,2.2.9h66.7a3,3,0,0,0,2.1-.9,3.1,3.1,0,0,0,.9-2.1V3A3,3,0,0,0,237.3.9Zm-2,55.1a.3.3,0,0,1-.1.2v0H168.3V10.9h66.9ZM234.1,5.4a1.7,1.7,0,0,1-1.7,1.7H185.5a1.7,1.7,0,1,1,0-3.4h46.9A1.8,1.8,0,0,1,234.1,5.4Zm-53.7,0a1.1,1.1,0,0,1-1.1,1.1,1.2,1.2,0,0,1-1.2-1.1,1.2,1.2,0,0,1,1.2-1.2A1.1,1.1,0,0,1,180.4,5.4Zm-3.4,0a1.1,1.1,0,0,1-1.1,1.1,1.2,1.2,0,0,1-1.2-1.1,1.2,1.2,0,0,1,1.2-1.2A1.1,1.1,0,0,1,177,5.4Zm-4.5-1.2a1.1,1.1,0,0,1,1.1,1.2,1.1,1.1,0,0,1-1.1,1.1,1.2,1.2,0,0,1-1.2-1.1A1.2,1.2,0,0,1,172.5,4.2Z" style="fill:#72c594"/><path d="M71.8,70a2.7,2.7,0,0,0-2.1-.9H3a3,3,0,0,0-2.1.9A3.3,3.3,0,0,0,0,72v53a2.9,2.9,0,0,0,.9,2.1A2.9,2.9,0,0,0,3,128H69.7a3.2,3.2,0,0,0,2.1-.8,3.1,3.1,0,0,0,.9-2.2V72.1A2.7,2.7,0,0,0,71.8,70Zm-2,55v.2H2.9V79.9h67ZM68.6,74.5a1.7,1.7,0,0,1-1.7,1.7H20a1.7,1.7,0,0,1-1.7-1.7A1.8,1.8,0,0,1,20,72.7H66.9A1.6,1.6,0,0,1,68.6,74.5ZM15,74.4a1.1,1.1,0,0,1-1.2,1.1,1.1,1.1,0,0,1-1.1-1.1,1.2,1.2,0,0,1,1.1-1.2A1.2,1.2,0,0,1,15,74.4Zm-3.4,0a1.1,1.1,0,0,1-1.2,1.1,1.1,1.1,0,0,1-1.1-1.1,1.1,1.1,0,0,1,1.1-1.2A1.2,1.2,0,0,1,11.6,74.4ZM7,73.2a1.2,1.2,0,0,1,1.2,1.2A1.1,1.1,0,0,1,7,75.5a1.1,1.1,0,0,1-1.1-1.1A1.1,1.1,0,0,1,7,73.2Z" style="fill:#707070"/><path d="M154.6,70a3,3,0,0,0-2.1-.9H85.8a2.7,2.7,0,0,0-2.1.9,2.9,2.9,0,0,0-.9,2.1v53a3.3,3.3,0,0,0,.9,2.1,3,3,0,0,0,2.1.9h66.7a3,3,0,0,0,2.1-.8,3.1,3.1,0,0,0,.9-2.2V72.1A3.1,3.1,0,0,0,154.6,70Zm-2,55a.2.2,0,0,1-.2.2v0H85.6V79.9h67Zm-1.2-50.5a1.8,1.8,0,0,1-1.7,1.7h-47a1.7,1.7,0,0,1-1.7-1.7,1.8,1.8,0,0,1,1.7-1.7h47A1.7,1.7,0,0,1,151.4,74.5Zm-53.7-.1a1.1,1.1,0,0,1-1.1,1.1,1.1,1.1,0,0,1-1.2-1.1,1.2,1.2,0,0,1,1.2-1.2A1.2,1.2,0,0,1,97.7,74.4Zm-3.4,0a1.1,1.1,0,0,1-1.1,1.1A1.1,1.1,0,0,1,92,74.4a1.2,1.2,0,0,1,1.2-1.2A1.1,1.1,0,0,1,94.3,74.4Zm-4.5-1.2a1.1,1.1,0,0,1,1.1,1.2,1.1,1.1,0,0,1-1.1,1.1,1.1,1.1,0,0,1-1.2-1.1A1.2,1.2,0,0,1,89.8,73.2Z" style="fill:#707070"/><path d="M237.3,70a2.9,2.9,0,0,0-2.1-.9H168.5a3.1,3.1,0,0,0-3,3v53a3.2,3.2,0,0,0,.8,2.1,3.1,3.1,0,0,0,2.2.9h66.7a3.4,3.4,0,0,0,2.1-.8,3.6,3.6,0,0,0,.9-2.2V72.1A2.7,2.7,0,0,0,237.3,70Zm-2,55v.2H168.3V79.9h66.9Zm-1.2-50.5a1.8,1.8,0,0,1-1.7,1.7H185.5a1.6,1.6,0,0,1-1.7-1.7,1.7,1.7,0,0,1,1.7-1.7h46.9A1.7,1.7,0,0,1,234.1,74.5Zm-53.7-.1a1.1,1.1,0,0,1-1.1,1.1,1.2,1.2,0,0,1-1.2-1.1,1.3,1.3,0,0,1,1.2-1.2A1.2,1.2,0,0,1,180.4,74.4Zm-3.4,0a1.1,1.1,0,0,1-1.1,1.1,1.2,1.2,0,0,1-1.2-1.1,1.2,1.2,0,0,1,1.2-1.2A1.1,1.1,0,0,1,177,74.4Zm-4.5-1.2a1.1,1.1,0,0,1,1.1,1.2,1.1,1.1,0,0,1-1.1,1.1,1.2,1.2,0,0,1-1.2-1.1A1.2,1.2,0,0,1,172.5,73.2Z" style="fill:#707070"/><path d="M320,70a2.7,2.7,0,0,0-2.1-.9H251.2a3.1,3.1,0,0,0-3,3v53a2.9,2.9,0,0,0,.9,2.1,2.7,2.7,0,0,0,2.1.9h66.7a3.2,3.2,0,0,0,2.1-.8,3.1,3.1,0,0,0,.9-2.2V72.1A2.7,2.7,0,0,0,320,70Zm-2,55v.2H251.1V79.9H318Zm-1.2-50.5a1.7,1.7,0,0,1-1.7,1.7H268.2a1.6,1.6,0,0,1-1.7-1.7,1.8,1.8,0,0,1,1.7-1.7h46.9A1.6,1.6,0,0,1,316.8,74.5Zm-53.6-.1a1.2,1.2,0,0,1-1.2,1.1,1.1,1.1,0,0,1-1.1-1.1,1.2,1.2,0,0,1,1.1-1.2A1.2,1.2,0,0,1,263.2,74.4Zm-3.4,0a1.1,1.1,0,0,1-1.2,1.1,1.1,1.1,0,0,1-1.1-1.1,1.1,1.1,0,0,1,1.1-1.2A1.2,1.2,0,0,1,259.8,74.4Zm-4.6-1.2a1.2,1.2,0,0,1,1.2,1.2,1.1,1.1,0,0,1-1.2,1.1,1.1,1.1,0,0,1-1.1-1.1A1.1,1.1,0,0,1,255.2,73.2Z" style="fill:#ffcc32"/><path d="M71.8,139a2.7,2.7,0,0,0-2.1-.9H3a3.6,3.6,0,0,0-2.1.9A3.6,3.6,0,0,0,0,141v53a2.7,2.7,0,0,0,.9,2.1A2.9,2.9,0,0,0,3,197H69.7a3.3,3.3,0,0,0,2.1-.9,3,3,0,0,0,.9-2.1v-53A2.7,2.7,0,0,0,71.8,139Zm-2,55.1h-.1v0H3V148.9h67Zm-1.2-50.6a1.7,1.7,0,0,1-1.7,1.7H20a1.7,1.7,0,0,1-1.7-1.7,1.7,1.7,0,0,1,1.7-1.6H66.9A1.6,1.6,0,0,1,68.6,143.5ZM15,143.4a1.2,1.2,0,0,1-1.2,1.2,1.2,1.2,0,0,1-1.1-1.2,1.1,1.1,0,0,1,1.1-1.1A1.1,1.1,0,0,1,15,143.4Zm-3.4,0a1.2,1.2,0,0,1-1.2,1.2,1.2,1.2,0,0,1-1.1-1.2,1.1,1.1,0,0,1,1.1-1.1A1.1,1.1,0,0,1,11.6,143.4ZM7,142.3a1.1,1.1,0,0,1,1.2,1.1A1.2,1.2,0,0,1,7,144.6a1.2,1.2,0,0,1-1.1-1.2A1.1,1.1,0,0,1,7,142.3Z" style="fill:#707070"/><path d="M154.6,139a3,3,0,0,0-2.1-.9H85.8a3.1,3.1,0,0,0-2.1.9,3,3,0,0,0-.9,2.1v53a3.1,3.1,0,0,0,.9,2.1,3,3,0,0,0,2.1.9h66.7a3.1,3.1,0,0,0,2.1-.9,3,3,0,0,0,.9-2.1v-53A3.1,3.1,0,0,0,154.6,139Zm-2,55.1h-.2v0H85.7V148.9h67Zm-1.2-50.6a1.8,1.8,0,0,1-1.7,1.7h-47a1.7,1.7,0,0,1-1.7-1.7,1.7,1.7,0,0,1,1.7-1.6h47A1.7,1.7,0,0,1,151.4,143.5Zm-53.7-.1a1.2,1.2,0,0,1-1.1,1.2,1.2,1.2,0,0,1-1.2-1.2,1.1,1.1,0,0,1,1.2-1.1A1.1,1.1,0,0,1,97.7,143.4Zm-3.4,0a1.2,1.2,0,0,1-1.1,1.2,1.2,1.2,0,0,1-1.2-1.2,1.1,1.1,0,0,1,1.2-1.1A1.1,1.1,0,0,1,94.3,143.4Zm-4.5-1.1a1.1,1.1,0,0,1,1.1,1.1,1.2,1.2,0,0,1-1.1,1.2,1.2,1.2,0,0,1-1.2-1.2A1.1,1.1,0,0,1,89.8,142.3Z" style="fill:#707070"/><path d="M237.3,139a2.9,2.9,0,0,0-2.1-.9H168.5a3.3,3.3,0,0,0-2.1.9,3,3,0,0,0-.9,2.1v53a3,3,0,0,0,.8,2.1,3.1,3.1,0,0,0,2.2.9h66.7a3.1,3.1,0,0,0,3-3v-53A2.7,2.7,0,0,0,237.3,139Zm-2,55.1h-.1v0H168.5l-.2-.2V148.9h66.9Zm-1.2-50.6a1.8,1.8,0,0,1-1.7,1.7H185.5a1.6,1.6,0,0,1-1.7-1.7,1.6,1.6,0,0,1,1.7-1.6h46.9A1.7,1.7,0,0,1,234.1,143.5Zm-53.7-.1a1.2,1.2,0,0,1-1.1,1.2,1.3,1.3,0,0,1-1.2-1.2,1.2,1.2,0,0,1,1.2-1.1A1.1,1.1,0,0,1,180.4,143.4Zm-3.4,0a1.2,1.2,0,0,1-1.1,1.2,1.3,1.3,0,0,1-1.2-1.2,1.2,1.2,0,0,1,1.2-1.1A1.1,1.1,0,0,1,177,143.4Zm-4.5-1.1a1.1,1.1,0,0,1,1.1,1.1,1.2,1.2,0,0,1-1.1,1.2,1.3,1.3,0,0,1-1.2-1.2A1.2,1.2,0,0,1,172.5,142.3Z" style="fill:#707070"/><path d="M320,139a2.7,2.7,0,0,0-2.1-.9H251.2a3.3,3.3,0,0,0-2.1.9,3,3,0,0,0-.9,2.1v53a3.1,3.1,0,0,0,3,3h66.7a3.3,3.3,0,0,0,2.1-.9,3,3,0,0,0,.9-2.1v-53A2.7,2.7,0,0,0,320,139Zm-2,55.1h-.1v0H251.2c-.1,0-.1-.1-.1-.2V148.9H318Zm-1.2-50.6a1.7,1.7,0,0,1-1.7,1.7H268.2a1.6,1.6,0,0,1-1.7-1.7,1.7,1.7,0,0,1,1.7-1.6h46.9A1.6,1.6,0,0,1,316.8,143.5Zm-53.6-.1a1.3,1.3,0,0,1-1.2,1.2,1.2,1.2,0,0,1-1.1-1.2,1.1,1.1,0,0,1,1.1-1.1A1.1,1.1,0,0,1,263.2,143.4Zm-3.4,0a1.2,1.2,0,0,1-1.2,1.2,1.2,1.2,0,0,1-1.1-1.2,1.1,1.1,0,0,1,1.1-1.1A1.1,1.1,0,0,1,259.8,143.4Zm-4.6-1.1a1.1,1.1,0,0,1,1.2,1.1,1.2,1.2,0,0,1-1.2,1.2,1.2,1.2,0,0,1-1.1-1.2A1.1,1.1,0,0,1,255.2,142.3Z" style="fill:#707070"/><path d="M402.8,139a3.1,3.1,0,0,0-2.2-.9H334a3.6,3.6,0,0,0-2.2.9,3.4,3.4,0,0,0-.8,2.1v53a2.7,2.7,0,0,0,.9,2.1,2.9,2.9,0,0,0,2.1.9h66.7a3.1,3.1,0,0,0,2.1-.9,3,3,0,0,0,.9-2.1v-53A3,3,0,0,0,402.8,139Zm-2.1,55.1h-.1v0H333.9V148.9h67Zm-1.1-50.6a1.8,1.8,0,0,1-1.7,1.7h-47a1.7,1.7,0,0,1-1.7-1.7,1.7,1.7,0,0,1,1.7-1.6h47A1.7,1.7,0,0,1,399.6,143.5Zm-53.7-.1a1.2,1.2,0,0,1-1.2,1.2,1.2,1.2,0,0,1-1.1-1.2,1.1,1.1,0,0,1,1.1-1.1A1.1,1.1,0,0,1,345.9,143.4Zm-3.4,0a1.2,1.2,0,0,1-1.2,1.2,1.2,1.2,0,0,1-1.1-1.2,1.1,1.1,0,0,1,1.2-1.1A1.1,1.1,0,0,1,342.5,143.4Zm-4.5-1.1a1.1,1.1,0,0,1,1.1,1.1,1.2,1.2,0,0,1-1.1,1.2,1.2,1.2,0,0,1-1.2-1.2A1.1,1.1,0,0,1,338,142.3Z" style="fill:#f69259"/><path d="M71.8,208a2.7,2.7,0,0,0-2.1-.9H3a3,3,0,0,0-2.1.9,3.1,3.1,0,0,0-.9,2.1V263a3.1,3.1,0,0,0,.9,2.2,3.3,3.3,0,0,0,2.1.9H69.7a3.1,3.1,0,0,0,3-3v-53A2.9,2.9,0,0,0,71.8,208Zm-2,55.1h-.1v0H3a.3.3,0,0,1-.1-.2V217.9h67Zm-1.2-50.6a1.7,1.7,0,0,1-1.7,1.7H20a1.8,1.8,0,0,1-1.7-1.7,1.7,1.7,0,0,1,1.7-1.7H66.9A1.7,1.7,0,0,1,68.6,212.5ZM15,212.4a1.2,1.2,0,0,1-1.2,1.2,1.1,1.1,0,0,1-1.1-1.2,1.1,1.1,0,0,1,1.1-1.1A1.1,1.1,0,0,1,15,212.4Zm-3.4,0a1.2,1.2,0,0,1-1.2,1.2,1.1,1.1,0,0,1-1.1-1.2,1.1,1.1,0,0,1,1.1-1.1A1.1,1.1,0,0,1,11.6,212.4ZM7,211.3a1.1,1.1,0,0,1,1.2,1.1A1.2,1.2,0,0,1,7,213.6a1.1,1.1,0,0,1-1.1-1.2A1.1,1.1,0,0,1,7,211.3Z" style="fill:#707070"/><path d="M154.6,208a3,3,0,0,0-2.1-.9H85.8a3.1,3.1,0,0,0-3,3V263a3.1,3.1,0,0,0,3,3.1h66.7a2.7,2.7,0,0,0,2.1-.9,2.9,2.9,0,0,0,.9-2.1v-53A3.3,3.3,0,0,0,154.6,208Zm-2,55.1h-.2v0H85.7a.3.3,0,0,1-.1-.2V217.9h67Zm-1.2-50.6a1.8,1.8,0,0,1-1.7,1.7h-47a1.8,1.8,0,0,1-1.7-1.7,1.7,1.7,0,0,1,1.7-1.7h47A1.8,1.8,0,0,1,151.4,212.5Zm-53.7-.1a1.1,1.1,0,0,1-1.1,1.2,1.2,1.2,0,0,1-1.2-1.2,1.1,1.1,0,0,1,1.2-1.1A1.1,1.1,0,0,1,97.7,212.4Zm-3.4,0a1.1,1.1,0,0,1-1.1,1.2,1.2,1.2,0,0,1-1.2-1.2,1.1,1.1,0,0,1,1.2-1.1A1.1,1.1,0,0,1,94.3,212.4Zm-4.5-1.1a1.1,1.1,0,0,1,1.1,1.1,1.1,1.1,0,0,1-1.1,1.2,1.2,1.2,0,0,1-1.2-1.2A1.1,1.1,0,0,1,89.8,211.3Z" style="fill:#707070"/><path d="M237.3,208a2.9,2.9,0,0,0-2.1-.9H168.5a2.9,2.9,0,0,0-2.1.9,2.7,2.7,0,0,0-.9,2.1V263a3.5,3.5,0,0,0,.8,2.2,3.6,3.6,0,0,0,2.2.9h66.7a3,3,0,0,0,2.1-.9,3.3,3.3,0,0,0,.9-2.1v-53A2.9,2.9,0,0,0,237.3,208Zm-2,55.1h-.1v0H168.5a.2.2,0,0,1-.2-.2V217.9h66.9Zm-1.2-50.6a1.8,1.8,0,0,1-1.7,1.7H185.5a1.7,1.7,0,0,1-1.7-1.7,1.6,1.6,0,0,1,1.7-1.7h46.9A1.8,1.8,0,0,1,234.1,212.5Zm-53.7-.1a1.1,1.1,0,0,1-1.1,1.2,1.2,1.2,0,0,1-1.2-1.2,1.2,1.2,0,0,1,1.2-1.1A1.1,1.1,0,0,1,180.4,212.4Zm-3.4,0a1.1,1.1,0,0,1-1.1,1.2,1.2,1.2,0,0,1-1.2-1.2,1.2,1.2,0,0,1,1.2-1.1A1.1,1.1,0,0,1,177,212.4Zm-4.5-1.1a1.1,1.1,0,0,1,1.1,1.1,1.1,1.1,0,0,1-1.1,1.2,1.2,1.2,0,0,1-1.2-1.2A1.2,1.2,0,0,1,172.5,211.3Z" style="fill:#707070"/><path d="M320,208a2.7,2.7,0,0,0-2.1-.9H251.2a2.9,2.9,0,0,0-2.1.9,2.7,2.7,0,0,0-.9,2.1V263a3.1,3.1,0,0,0,3,3.1h66.7a3.1,3.1,0,0,0,3-3v-53A2.9,2.9,0,0,0,320,208Zm-2,55.1h-.1v0H251.2c-.1,0-.1-.1-.1-.2V217.9H318Zm-1.2-50.6a1.7,1.7,0,0,1-1.7,1.7H268.2a1.7,1.7,0,0,1,0-3.4h46.9A1.7,1.7,0,0,1,316.8,212.5Zm-53.6-.1a1.2,1.2,0,0,1-1.2,1.2,1.1,1.1,0,0,1-1.1-1.2,1.1,1.1,0,0,1,1.1-1.1A1.1,1.1,0,0,1,263.2,212.4Zm-3.4,0a1.2,1.2,0,0,1-1.2,1.2,1.1,1.1,0,0,1-1.1-1.2,1.1,1.1,0,0,1,1.1-1.1A1.1,1.1,0,0,1,259.8,212.4Zm-4.6-1.1a1.1,1.1,0,0,1,1.2,1.1,1.2,1.2,0,0,1-1.2,1.2,1.1,1.1,0,0,1-1.1-1.2A1.1,1.1,0,0,1,255.2,211.3Z" style="fill:#707070"/><path d="M402.8,208a3.1,3.1,0,0,0-2.2-.9H334a3.1,3.1,0,0,0-2.2.9,3,3,0,0,0-.8,2.1V263a3.1,3.1,0,0,0,.9,2.2,3.3,3.3,0,0,0,2.1.9h66.7a2.7,2.7,0,0,0,2.1-.9,2.9,2.9,0,0,0,.9-2.1v-53A3.2,3.2,0,0,0,402.8,208Zm-2.1,55.1h-.1v0H333.9a.3.3,0,0,1-.1-.2V217.9h67Zm-1.1-50.6a1.8,1.8,0,0,1-1.7,1.7h-47a1.8,1.8,0,0,1-1.7-1.7,1.7,1.7,0,0,1,1.7-1.7h47A1.8,1.8,0,0,1,399.6,212.5Zm-53.7-.1a1.2,1.2,0,0,1-1.2,1.2,1.1,1.1,0,0,1-1.1-1.2,1.1,1.1,0,0,1,1.1-1.1A1.1,1.1,0,0,1,345.9,212.4Zm-3.4,0a1.2,1.2,0,0,1-1.2,1.2,1.2,1.2,0,1,1,.1-2.3A1.1,1.1,0,0,1,342.5,212.4Zm-4.5-1.1a1.1,1.1,0,0,1,1.1,1.1,1.1,1.1,0,0,1-1.1,1.2,1.2,1.2,0,0,1-1.2-1.2A1.1,1.1,0,0,1,338,211.3Z" style="fill:#707070"/><path d="M485.5,208a2.9,2.9,0,0,0-2.1-.9H416.7a3.1,3.1,0,0,0-3,3V263a3.1,3.1,0,0,0,3,3.1h66.7a3.1,3.1,0,0,0,2.2-.9,3.2,3.2,0,0,0,.8-2.1v-53A2.9,2.9,0,0,0,485.5,208Zm-2,55.1h-.2v0H416.7a.2.2,0,0,1-.2-.2V217.9h67Zm-1.2-50.6a1.8,1.8,0,0,1-1.7,1.7h-47a1.8,1.8,0,0,1-1.7-1.7,1.7,1.7,0,0,1,1.7-1.7h47A1.8,1.8,0,0,1,482.3,212.5Zm-53.7-.1a1.1,1.1,0,0,1-1.1,1.2,1.2,1.2,0,0,1-1.2-1.2,1.1,1.1,0,0,1,1.2-1.1A1.1,1.1,0,0,1,428.6,212.4Zm-3.4,0a1.1,1.1,0,0,1-1.1,1.2,1.2,1.2,0,0,1-1.2-1.2,1.1,1.1,0,0,1,1.2-1.1A1.1,1.1,0,0,1,425.2,212.4Zm-4.5-1.1a1.1,1.1,0,0,1,1.1,1.1,1.1,1.1,0,0,1-1.1,1.2,1.2,1.2,0,0,1-1.2-1.2A1.2,1.2,0,0,1,420.7,211.3Z" style="fill:#f16975"/><path d="M243.2,23.7v-.2a3.5,3.5,0,0,1,3.8-3.4c2.4,0,3.9,1.3,3.9,3.1s-1,2.4-1.9,3.4l-2.2,2.2H251V31h-7.6V29.4l3.8-3.9c.5-.6,1.2-1.3,1.2-2.1a1.3,1.3,0,0,0-1.4-1.2,1.3,1.3,0,0,0-1.4,1.3v.2Z" style="fill:#707070"/><path d="M254.5,28.2a1.5,1.5,0,1,1,0,3,1.5,1.5,0,0,1,0-3Z" style="fill:#707070"/><path d="M265.4,20.3v6.8h1.3v2.1h-1.3V31H263V29.2h-5.1V27.1c1.2-2.3,2.5-4.5,3.9-6.8ZM263,27.1V22.2h-.1c-1,1.6-1.9,3.2-2.8,4.9H263Z" style="fill:#707070"/><path d="M275.2,22.5c1.9,0,3.3.8,3.3,2.5h-2.2c0-.4-.4-.9-1.2-.9s-1.1.4-1.1.9,1.3.8,2.2,1,2.6.9,2.6,2.3-1.4,2.8-3.8,2.8-3.5-1-3.5-2.5h2.4c0,.5.5.9,1.2.9s1.3-.4,1.3-.9-1.1-.7-2.1-.9-2.6-.9-2.6-2.5S273.3,22.5,275.2,22.5Z" style="fill:#707070"/><path d="M280.2,27.2v-.8a3.9,3.9,0,1,1,7.7,0v.9h-5.3v.4a1.5,1.5,0,0,0,1.6,1.6c.7,0,1.3-.4,1.3-.9h2.3c0,1.1-1.1,2.7-3.6,2.7S280.2,29.8,280.2,27.2Zm5.3-1.3h0a1.4,1.4,0,0,0-1.4-1.6,1.4,1.4,0,0,0-1.5,1.6h2.9Z" style="fill:#707070"/><path d="M289.4,26.4a3.6,3.6,0,0,1,3.8-3.9c2.3,0,3.6,1.3,3.6,3.2h-2.2a1.3,1.3,0,0,0-1.3-1.3c-.9,0-1.4.8-1.4,2v.8c0,1.2.5,2,1.4,2s1.2-.5,1.3-1.2h2.2c0,1.9-1.3,3.1-3.6,3.1s-3.8-1.4-3.8-3.9Z" style="fill:#707070"/><path d="M306.2,26.4v.7a3.7,3.7,0,0,1-4,4c-2.4,0-3.9-1.4-3.9-4v-.7a4,4,0,0,1,7.9,0Zm-5.4,0v.8c0,1,.4,2.1,1.4,2.1s1.5-1.1,1.5-2.1v-.8c0-1.1-.5-2-1.5-2S300.8,25.4,300.8,26.4Z" style="fill:#707070"/><path d="M308,22.6h2.4v1.5h.2a2.3,2.3,0,0,1,2.4-1.6c1.7,0,2.8,1,2.8,3V31h-2.5V26.1c0-1.1-.6-1.5-1.3-1.5s-1.5.7-1.5,1.8V31H308Z" style="fill:#707070"/><path d="M323,23.9h.2V19.8h2.5V31h-2.5V29.7h-.1a2.4,2.4,0,0,1-2.4,1.4c-1.9,0-3.1-1.4-3.1-3.8v-1c0-2.4,1.2-3.7,3.1-3.7A2.2,2.2,0,0,1,323,23.9Zm-2.8,2.6v.6c0,1.3.6,2,1.5,2s1.5-.6,1.5-1.9v-.8c0-1.2-.7-1.9-1.5-1.9S320.2,25.2,320.2,26.5Z" style="fill:#707070"/><path d="M331.2,22.5c1.9,0,3.3.8,3.3,2.5h-2.2c0-.4-.4-.9-1.2-.9s-1.1.4-1.1.9,1.3.8,2.2,1,2.6.9,2.6,2.3-1.4,2.8-3.8,2.8-3.5-1-3.5-2.5h2.4c0,.5.5.9,1.2.9s1.2-.4,1.2-.9-1-.7-2-.9-2.6-.9-2.6-2.5S329.3,22.5,331.2,22.5Z" style="fill:#707070"/><path d="M245.7,48.4V40.1h-.1l-2.4,1.7V39.5l2.5-1.8h2.6V48.4Z" style="fill:#707070"/><path d="M252.3,45.6a1.5,1.5,0,1,1,0,3,1.5,1.5,0,0,1,0-3Z" style="fill:#707070"/><path d="M258.5,45.8a1.3,1.3,0,0,0,1.4.8c1.4,0,2.1-1.4,2-3.2h-.2c-.2.7-1,1.3-2.4,1.3a3.2,3.2,0,0,1-3.4-3.4c0-2.3,1.7-3.8,4.1-3.8s4.3,1.5,4.3,5.5-1.6,5.6-4.5,5.6-3.6-1.5-3.7-2.8Zm1.4-6.3a1.6,1.6,0,0,0-1.6,1.7,1.6,1.6,0,1,0,1.6-1.7Z" style="fill:#707070"/><path d="M265.6,40.2a2.6,2.6,0,1,1,5.2,0,2.6,2.6,0,1,1-5.2,0Zm5.3,2.7,2.8-5.2H276l-3.8,5.7-2.6,5h-2.3ZM269,40.2c0-.7-.3-1.2-.8-1.2s-.8.5-.8,1.2.3,1.2.8,1.2S269,41,269,40.2Zm3.4,5.7a2.6,2.6,0,1,1,5.1,0,2.6,2.6,0,1,1-5.1,0Zm3.3,0c0-.7-.3-1.2-.8-1.2s-.7.5-.7,1.2.3,1.2.7,1.2S275.7,46.7,275.7,45.9Z" style="fill:#707070"/><path d="M282.2,43.8a3.6,3.6,0,0,1,3.9-3.9c2.2,0,3.6,1.4,3.6,3.2h-2.3a1.2,1.2,0,0,0-1.2-1.2c-1,0-1.5.7-1.5,1.9v.8c0,1.3.6,2,1.5,2a1.1,1.1,0,0,0,1.2-1.2h2.3c0,1.9-1.3,3.2-3.6,3.2a3.7,3.7,0,0,1-3.9-4Z" style="fill:#707070"/><path d="M299,43.8v.8a4,4,0,1,1-7.9,0v-.7a3.8,3.8,0,0,1,4-4A3.7,3.7,0,0,1,299,43.8Zm-5.4.1v.7c0,1,.4,2.1,1.5,2.1s1.4-1,1.4-2.1v-.7c0-1.1-.4-2.1-1.4-2.1S293.6,42.8,293.6,43.9Z" style="fill:#707070"/><path d="M300.9,40.1h2.4v1.4h.1a2.5,2.5,0,0,1,2.5-1.6c1.6,0,2.7,1,2.7,3v5.5h-2.5V43.6c0-1.2-.6-1.6-1.3-1.6s-1.4.7-1.4,1.8v4.6h-2.5Z" style="fill:#707070"/><path d="M309.8,40.1h2.7l1.4,6.1h.1l1.6-6.1h2.6l-2.8,8.3h-2.9Z" style="fill:#707070"/><path d="M319,44.6v-.8a3.7,3.7,0,0,1,3.9-3.9,3.6,3.6,0,0,1,3.8,3.9v1h-5.2v.3a1.4,1.4,0,0,0,1.5,1.6,1.4,1.4,0,0,0,1.4-.9h2.3c-.1,1.1-1.1,2.8-3.7,2.8A3.7,3.7,0,0,1,319,44.6Zm5.3-1.3h0c0-1-.5-1.6-1.4-1.6a1.4,1.4,0,0,0-1.4,1.6h2.8Z" style="fill:#707070"/><path d="M328.6,40.1h2.5v1.3h.1a2.1,2.1,0,0,1,2-1.5h.7v2.2H333a1.6,1.6,0,0,0-1.8,1.8v4.5h-2.6Z" style="fill:#707070"/><path d="M338.6,39.9c1.9,0,3.3.9,3.3,2.5h-2.2c0-.4-.4-.8-1.2-.8s-1.1.3-1.1.8,1.3.8,2.2,1,2.6.9,2.6,2.4-1.4,2.8-3.8,2.8-3.5-1.1-3.5-2.6h2.4c0,.5.5.9,1.2.9s1.3-.4,1.3-.8-1.1-.8-2.1-1-2.6-.9-2.6-2.5S336.7,39.9,338.6,39.9Z" style="fill:#707070"/><path d="M345.3,36.4a1.3,1.3,0,0,1,1.5,1.3c0,.7-.6,1.2-1.5,1.2s-1.5-.5-1.5-1.2A1.3,1.3,0,0,1,345.3,36.4Zm-1.2,3.7h2.5v8.3h-2.5Z" style="fill:#707070"/><path d="M356.5,43.8v.8a3.7,3.7,0,0,1-4,4,3.7,3.7,0,0,1-3.9-4v-.7a3.7,3.7,0,0,1,3.9-4A3.8,3.8,0,0,1,356.5,43.8Zm-5.4.1v.7c0,1,.4,2.1,1.4,2.1s1.5-1,1.5-2.1v-.7c0-1.1-.5-2.1-1.5-2.1S351.1,42.8,351.1,43.9Z" style="fill:#707070"/><path d="M358.3,40.1h2.5v1.4h.1a2.4,2.4,0,0,1,2.4-1.6c1.7,0,2.8,1,2.8,3v5.5h-2.5V43.6c0-1.2-.6-1.6-1.3-1.6s-1.5.7-1.5,1.8v4.6h-2.5Z" style="fill:#707070"/><path d="M371.8,40.1h2.5v1.3h.1a2.1,2.1,0,0,1,2-1.5h.8v2.2h-.9a1.7,1.7,0,0,0-1.9,1.8v4.5h-2.6Z" style="fill:#707070"/><path d="M378.2,46c0-1.5,1.1-2.5,3-2.5h1.9v-.7c0-.7-.4-1-1.1-1s-1.1.3-1.2.8h-2.3c.1-1.3,1-2.7,3.5-2.7s3.6.8,3.6,3v5.5h-2.3v-1h-.2c-.2.6-.9,1.1-2.1,1.1S378.2,47.6,378.2,46Zm4.9-.3v-.9h-1.3a1,1,0,0,0-1.1,1,1,1,0,0,0,1.1,1A1.2,1.2,0,0,0,383.1,45.7Z" style="fill:#707070"/><path d="M388.4,38.1h2.4v2.1h1.8v1.9h-1.8v3.5c0,.7.3,1,1.1,1h.8v1.8h-1.4c-2.1,0-3-.6-3-2.4V42.1H387V40.2h1.4Z" style="fill:#707070"/><path d="M394.1,44.6v-.8a3.8,3.8,0,1,1,7.6,0v1h-5.2v.3a1.4,1.4,0,0,0,1.5,1.6,1.3,1.3,0,0,0,1.4-.9h2.3c-.1,1.1-1.1,2.8-3.7,2.8A3.7,3.7,0,0,1,394.1,44.6Zm5.3-1.3h0a1.4,1.4,0,0,0-1.5-1.6,1.4,1.4,0,0,0-1.4,1.6h2.9Z" style="fill:#707070"/><path d="M329.9,92.5H331c.9,0,1.5-.5,1.5-1.2a1.4,1.4,0,0,0-1.5-1.2,1.4,1.4,0,0,0-1.5,1.2h-2.3c0-1.9,1.5-3.2,3.9-3.2s3.8,1.2,3.8,2.9a2.2,2.2,0,0,1-1.9,2.3v.2a2.5,2.5,0,0,1,2.3,2.5c0,2.1-2.1,3.2-4.3,3.2s-4-1.5-4-3.2h2.3a1.6,1.6,0,0,0,1.7,1.2,1.5,1.5,0,0,0,1.7-1.4c0-.7-.6-1.3-1.6-1.3h-1.2Z" style="fill:#707070"/><path d="M338.5,96.2a1.4,1.4,0,0,1,1.5,1.5,1.5,1.5,0,0,1-1.5,1.5,1.5,1.5,0,0,1,0-3Z" style="fill:#707070"/><path d="M344.7,92.5h1.1c.9,0,1.5-.5,1.5-1.2a1.4,1.4,0,0,0-1.5-1.2,1.4,1.4,0,0,0-1.5,1.2H342c0-1.9,1.5-3.2,3.9-3.2s3.8,1.2,3.9,2.9a2.4,2.4,0,0,1-2,2.3v.2a2.5,2.5,0,0,1,2.3,2.5c0,2.1-2.1,3.2-4.2,3.2s-4-1.5-4.1-3.2h2.4c0,.7.7,1.2,1.6,1.2s1.7-.6,1.7-1.4-.6-1.3-1.6-1.3h-1.2Z" style="fill:#707070"/><path d="M358.8,90.5c1.9,0,3.3.8,3.3,2.5h-2.2c0-.4-.4-.9-1.2-.9s-1.1.4-1.1.9,1.3.8,2.2,1,2.6.9,2.6,2.3-1.4,2.8-3.8,2.8-3.5-1-3.5-2.5h2.4c0,.5.5.9,1.2.9s1.2-.4,1.2-.9-1-.7-2-.9-2.6-.9-2.6-2.5S356.9,90.5,358.8,90.5Z" style="fill:#707070"/><path d="M363.8,95.2v-.8a3.9,3.9,0,1,1,7.7,0v.9h-5.3v.4a1.5,1.5,0,0,0,1.6,1.6c.7,0,1.3-.4,1.3-.9h2.3c0,1.1-1.1,2.7-3.6,2.7S363.8,97.8,363.8,95.2Zm5.3-1.3h0a1.4,1.4,0,0,0-1.4-1.6,1.4,1.4,0,0,0-1.5,1.6h2.9Z" style="fill:#707070"/><path d="M373,94.4a3.6,3.6,0,0,1,3.8-3.9c2.2,0,3.6,1.3,3.6,3.2h-2.2a1.3,1.3,0,0,0-1.3-1.3c-.9,0-1.4.8-1.4,2v.8c0,1.2.5,2,1.4,2a1.2,1.2,0,0,0,1.3-1.2h2.2c0,1.9-1.3,3.1-3.6,3.1s-3.8-1.4-3.8-3.9Z" style="fill:#707070"/><path d="M389.8,94.4v.7a3.7,3.7,0,0,1-4,4c-2.4,0-3.9-1.4-3.9-4v-.7a4,4,0,0,1,7.9,0Zm-5.4,0v.8c0,1,.4,2.1,1.4,2.1s1.4-1.1,1.4-2.1v-.8c0-1.1-.4-2-1.4-2S384.4,93.4,384.4,94.4Z" style="fill:#707070"/><path d="M391.6,90.6H394v1.5h.2a2.2,2.2,0,0,1,2.4-1.6c1.7,0,2.8,1,2.8,3V99h-2.5V94.1a1.3,1.3,0,0,0-1.3-1.5c-.9,0-1.5.7-1.5,1.8V99h-2.5Z" style="fill:#707070"/><path d="M406.6,91.9h.2V87.8h2.5V99h-2.5V97.7h-.1a2.4,2.4,0,0,1-2.4,1.4c-1.9,0-3.1-1.4-3.1-3.8v-1c0-2.4,1.2-3.7,3.1-3.7A2.3,2.3,0,0,1,406.6,91.9Zm-2.8,2.6v.6c0,1.3.6,2,1.5,2s1.5-.6,1.5-1.9v-.8c0-1.2-.7-1.9-1.6-1.9S403.8,93.2,403.8,94.5Z" style="fill:#707070"/><path d="M414.8,90.5c1.9,0,3.3.8,3.3,2.5h-2.2a1.1,1.1,0,0,0-1.2-.9c-.7,0-1.1.4-1.1.9s1.3.8,2.2,1,2.5.9,2.5,2.3-1.3,2.8-3.7,2.8-3.5-1-3.5-2.5h2.4c0,.5.5.9,1.2.9s1.2-.4,1.2-.9-1-.7-2-.9-2.7-.9-2.7-2.5S412.9,90.5,414.8,90.5Z" style="fill:#707070"/><path d="M329.7,116.4v-8.3h-.1l-2.4,1.7v-2.3l2.5-1.8h2.6v10.7Z" style="fill:#707070"/><path d="M336.3,113.6a1.5,1.5,0,1,1,0,3,1.5,1.5,0,0,1,0-3Z" style="fill:#707070"/><path d="M342.2,113.5c.1.7.9,1.1,1.7,1.1a1.7,1.7,0,0,0,1.7-1.7,1.6,1.6,0,0,0-1.7-1.7,1.8,1.8,0,0,0-1.5.8h-2.3l.4-6.3h6.9v2.1h-4.8l-.2,2.4h.1a2.3,2.3,0,0,1,2.1-.9,3.4,3.4,0,0,1,3.5,3.5c0,2.3-1.7,3.8-4.2,3.8s-3.9-1.4-4-3.1Z" style="fill:#707070"/><path d="M349.3,108.2a2.6,2.6,0,1,1,2.6,2.8A2.5,2.5,0,0,1,349.3,108.2Zm5.2,2.7,2.8-5.2h2.3l-3.7,5.7-2.7,5h-2.3Zm-1.9-2.7c0-.7-.3-1.2-.7-1.2s-.8.5-.8,1.2.3,1.2.8,1.2S352.6,109,352.6,108.2Zm3.4,5.7a2.6,2.6,0,1,1,5.2,0,2.6,2.6,0,1,1-5.2,0Zm3.4,0c0-.7-.3-1.2-.8-1.2s-.8.5-.8,1.2.3,1.2.8,1.2S359.4,114.7,359.4,113.9Z" style="fill:#707070"/><path d="M365.9,111.8a3.6,3.6,0,0,1,3.8-3.9c2.3,0,3.6,1.4,3.6,3.2h-2.2a1.3,1.3,0,0,0-1.3-1.2c-.9,0-1.4.7-1.4,1.9v.8c0,1.3.5,2,1.4,2s1.2-.4,1.3-1.2h2.2c0,1.9-1.3,3.2-3.6,3.2s-3.8-1.5-3.8-4Z" style="fill:#707070"/><path d="M382.7,111.8v.8a4,4,0,1,1-7.9,0v-.7a4,4,0,0,1,7.9-.1Zm-5.4.1v.7c0,1,.4,2.1,1.4,2.1s1.5-1,1.5-2.1v-.7c0-1.1-.4-2.1-1.5-2.1S377.3,110.8,377.3,111.9Z" style="fill:#707070"/><path d="M384.5,108.1H387v1.4h.1a2.4,2.4,0,0,1,2.4-1.6c1.7,0,2.8,1,2.8,3v5.5h-2.5v-4.8c0-1.2-.6-1.6-1.3-1.6s-1.5.7-1.5,1.8v4.6h-2.5Z" style="fill:#707070"/><path d="M393.5,108.1h2.7l1.4,6.1h.1l1.6-6.1h2.6l-2.9,8.3h-2.8Z" style="fill:#707070"/><path d="M402.7,112.6v-.8a3.6,3.6,0,0,1,3.8-3.9,3.7,3.7,0,0,1,3.9,3.9v1h-5.3v.3a1.5,1.5,0,0,0,1.5,1.6c.8,0,1.4-.4,1.4-.9h2.3c0,1.1-1.1,2.8-3.6,2.8A3.7,3.7,0,0,1,402.7,112.6Zm5.3-1.3h0a1.4,1.4,0,0,0-1.4-1.6,1.4,1.4,0,0,0-1.5,1.6H408Z" style="fill:#707070"/><path d="M412.3,108.1h2.5v1.3h.1a1.9,1.9,0,0,1,1.9-1.5h.8v2.2h-.9a1.7,1.7,0,0,0-1.9,1.8v4.5h-2.5Z" style="fill:#707070"/><path d="M422.2,107.9c1.9,0,3.3.9,3.3,2.5h-2.1a1.1,1.1,0,0,0-1.2-.8c-.7,0-1.1.3-1.1.8s1.3.8,2.2,1,2.5.9,2.5,2.4-1.3,2.8-3.7,2.8-3.6-1.1-3.6-2.6h2.4a1.2,1.2,0,0,0,1.3.9c.8,0,1.2-.4,1.2-.8s-1-.8-2.1-1-2.6-.9-2.6-2.5S420.3,107.9,422.2,107.9Z" style="fill:#707070"/><path d="M429,104.4a1.3,1.3,0,0,1,1.5,1.3c0,.7-.6,1.2-1.5,1.2s-1.5-.5-1.5-1.2A1.3,1.3,0,0,1,429,104.4Zm-1.3,3.7h2.5v8.3h-2.5Z" style="fill:#707070"/><path d="M440.1,111.8v.8a4,4,0,1,1-7.9,0v-.7a3.7,3.7,0,0,1,4-4A3.7,3.7,0,0,1,440.1,111.8Zm-5.4.1v.7c0,1,.4,2.1,1.5,2.1s1.4-1,1.4-2.1v-.7c0-1.1-.4-2.1-1.4-2.1S434.7,110.8,434.7,111.9Z" style="fill:#707070"/><path d="M442,108.1h2.4v1.4h.1a2.5,2.5,0,0,1,2.5-1.6c1.6,0,2.7,1,2.7,3v5.5h-2.5v-4.8c0-1.2-.6-1.6-1.3-1.6s-1.4.7-1.4,1.8v4.6H442Z" style="fill:#707070"/><path d="M455.5,108.1H458v1.3h.1a2,2,0,0,1,2-1.5h.7v2.2h-.9a1.7,1.7,0,0,0-1.9,1.8v4.5h-2.5Z" style="fill:#707070"/><path d="M461.8,114c0-1.5,1.1-2.5,3-2.5h2v-.7c0-.7-.5-1-1.2-1s-1.1.3-1.1.8h-2.3c0-1.3.9-2.7,3.5-2.7s3.5.8,3.5,3v5.5h-2.3v-1h-.1a2.3,2.3,0,0,1-2.2,1.1A2.5,2.5,0,0,1,461.8,114Zm5-.3v-.9h-1.3c-.8,0-1.2.4-1.2,1a1.1,1.1,0,0,0,1.2,1A1.2,1.2,0,0,0,466.8,113.7Z" style="fill:#707070"/><path d="M472,106.1h2.4v2.1h1.9v1.9h-1.9v3.5c0,.7.4,1,1.2,1h.7v1.8H475c-2.2,0-3-.6-3-2.4v-3.9h-1.3v-1.9H472Z" style="fill:#707070"/><path d="M477.7,112.6v-.8a3.9,3.9,0,1,1,7.7,0v1h-5.3v.3a1.5,1.5,0,0,0,1.6,1.6c.7,0,1.3-.4,1.3-.9h2.3c0,1.1-1.1,2.8-3.6,2.8A3.7,3.7,0,0,1,477.7,112.6Zm5.3-1.3h0a1.4,1.4,0,0,0-1.4-1.6,1.4,1.4,0,0,0-1.5,1.6H483Z" style="fill:#707070"/><path d="M417.5,154.3v6.8h1.3v2.1h-1.3V165h-2.4v-1.8H410v-2.1c1.2-2.3,2.6-4.5,3.9-6.8Zm-2.4,6.8v-4.9H415c-.9,1.6-1.9,3.2-2.8,4.9h2.9Z" style="fill:#707070"/><path d="M422.1,162.2a1.5,1.5,0,0,1,0,3,1.5,1.5,0,0,1-1.5-1.5A1.4,1.4,0,0,1,422.1,162.2Z" style="fill:#707070"/><path d="M425.7,157.7v-.2c0-1.6,1.2-3.4,3.9-3.4s3.8,1.3,3.8,3.1-1,2.4-1.9,3.4l-2.2,2.2h4.3V165h-7.7v-1.6l3.8-3.9a3.3,3.3,0,0,0,1.2-2.1,1.3,1.3,0,0,0-1.4-1.2,1.3,1.3,0,0,0-1.4,1.3v.2Z" style="fill:#707070"/><path d="M442.2,156.5c2,0,3.4.8,3.4,2.5h-2.2a1.1,1.1,0,0,0-1.2-.9c-.7,0-1.1.4-1.1.9s1.3.8,2.2,1,2.5.9,2.5,2.3-1.3,2.8-3.7,2.8-3.5-1-3.5-2.5H441c0,.5.4.9,1.2.9s1.2-.4,1.2-.9-1-.7-2-.9-2.7-.9-2.7-2.5S440.4,156.5,442.2,156.5Z" style="fill:#707070"/><path d="M447.3,161.2v-.8a3.6,3.6,0,0,1,3.8-3.9,3.7,3.7,0,0,1,3.9,3.9v.9h-5.3v.4a1.5,1.5,0,0,0,1.5,1.6c.8,0,1.4-.4,1.4-.9h2.3c-.1,1.1-1.1,2.7-3.7,2.7A3.6,3.6,0,0,1,447.3,161.2Zm5.3-1.3h0a1.4,1.4,0,0,0-1.4-1.6,1.4,1.4,0,0,0-1.5,1.6h2.9Z" style="fill:#707070"/><path d="M456.4,160.4a3.6,3.6,0,0,1,3.9-3.9c2.2,0,3.6,1.3,3.6,3.2h-2.3a1.2,1.2,0,0,0-1.2-1.3c-.9,0-1.5.8-1.5,2v.8c0,1.2.6,2,1.5,2a1.2,1.2,0,0,0,1.3-1.2h2.2c0,1.9-1.3,3.1-3.6,3.1a3.6,3.6,0,0,1-3.9-3.9Z" style="fill:#707070"/><path d="M473.3,160.4v.7a4,4,0,0,1-8,0v-.7a3.8,3.8,0,0,1,4-3.9A3.7,3.7,0,0,1,473.3,160.4Zm-5.4,0v.8c0,1,.3,2.1,1.4,2.1s1.4-1.1,1.4-2.1v-.8c0-1.1-.4-2-1.4-2S467.9,159.4,467.9,160.4Z" style="fill:#707070"/><path d="M475.1,156.6h2.4v1.5h.1a2.5,2.5,0,0,1,2.5-1.6c1.7,0,2.8,1,2.8,3V165h-2.5v-4.9a1.3,1.3,0,0,0-1.3-1.5c-.9,0-1.5.7-1.5,1.8V165h-2.5Z" style="fill:#707070"/><path d="M490.1,157.9h.1v-4.1h2.5V165h-2.4v-1.3h-.1a2.5,2.5,0,0,1-2.4,1.4c-1.9,0-3.1-1.4-3.1-3.8v-1c0-2.4,1.2-3.7,3.1-3.7A2.3,2.3,0,0,1,490.1,157.9Zm-2.8,2.6v.6c0,1.3.6,2,1.4,2s1.5-.6,1.5-1.9v-.8c0-1.2-.6-1.9-1.5-1.9S487.3,159.2,487.3,160.5Z" style="fill:#707070"/><path d="M498.2,156.5c2,0,3.3.8,3.3,2.5h-2.1a1.2,1.2,0,0,0-1.2-.9c-.7,0-1.1.4-1.1.9s1.3.8,2.2,1,2.5.9,2.5,2.3-1.3,2.8-3.7,2.8-3.6-1-3.6-2.5H497c0,.5.4.9,1.2.9s1.2-.4,1.2-.9-1-.7-2-.9-2.7-.9-2.7-2.5S496.4,156.5,498.2,156.5Z" style="fill:#707070"/><path d="M410.5,177.5l7.5-4v2.4l-4.6,2.2h0l4.6,2.2v2.4l-7.5-3.8Z" style="fill:#707070"/><path d="M422.7,182.4v-8.3h-.2l-2.4,1.7v-2.3l2.6-1.8h2.5v10.7Z" style="fill:#707070"/><path d="M427.5,174.2a2.6,2.6,0,1,1,5.1,0,2.6,2.6,0,1,1-5.1,0Zm5.2,2.7,2.8-5.2h2.3l-3.8,5.7-2.6,5h-2.3Zm-1.9-2.7c0-.7-.3-1.2-.8-1.2s-.7.5-.7,1.2.2,1.2.7,1.2S430.8,175,430.8,174.2Zm3.4,5.7a2.6,2.6,0,1,1,2.6,2.8A2.5,2.5,0,0,1,434.2,179.9Zm3.3,0c0-.7-.2-1.2-.7-1.2s-.8.5-.8,1.2.3,1.2.8,1.2S437.5,180.7,437.5,179.9Z" style="fill:#707070"/><path d="M444,177.8a3.6,3.6,0,0,1,3.9-3.9c2.2,0,3.6,1.4,3.6,3.2h-2.3a1.2,1.2,0,0,0-1.2-1.2c-.9,0-1.5.7-1.5,1.9v.8c0,1.3.6,2,1.5,2a1.2,1.2,0,0,0,1.3-1.2h2.2c0,1.9-1.3,3.2-3.6,3.2a3.7,3.7,0,0,1-3.9-4Z" style="fill:#707070"/><path d="M460.9,177.8v.8a4,4,0,1,1-8,0v-.7a4,4,0,0,1,8-.1Zm-5.4.1v.7c0,1,.3,2.1,1.4,2.1s1.4-1,1.4-2.1v-.7c0-1.1-.4-2.1-1.4-2.1S455.5,176.8,455.5,177.9Z" style="fill:#707070"/><path d="M462.7,174.1h2.4v1.4h.1a2.6,2.6,0,0,1,2.5-1.6c1.7,0,2.8,1,2.8,3v5.5H468v-4.8c0-1.2-.7-1.6-1.3-1.6s-1.5.7-1.5,1.8v4.6h-2.5Z" style="fill:#707070"/><path d="M471.7,174.1h2.7l1.3,6.1h.1l1.6-6.1H480l-2.8,8.3h-2.9Z" style="fill:#707070"/><path d="M480.9,178.6v-.8a3.8,3.8,0,1,1,7.6,0v1h-5.2v.3a1.4,1.4,0,0,0,1.5,1.6,1.3,1.3,0,0,0,1.4-.9h2.3c-.1,1.1-1.1,2.8-3.7,2.8A3.7,3.7,0,0,1,480.9,178.6Zm5.3-1.3h0a1.4,1.4,0,0,0-1.5-1.6,1.4,1.4,0,0,0-1.4,1.6h2.9Z" style="fill:#707070"/><path d="M490.4,174.1h2.5v1.3h.1a2.1,2.1,0,0,1,2-1.5h.8v2.2h-.9a1.7,1.7,0,0,0-1.9,1.8v4.5h-2.6Z" style="fill:#707070"/><path d="M500.4,173.9c1.9,0,3.3.9,3.3,2.5h-2.2c0-.4-.4-.8-1.1-.8s-1.2.3-1.2.8,1.4.8,2.2,1,2.6.9,2.6,2.4-1.4,2.8-3.8,2.8-3.5-1.1-3.5-2.6h2.4a1.2,1.2,0,0,0,1.3.9c.8,0,1.2-.4,1.2-.8s-1-.8-2.1-1-2.6-.9-2.6-2.5S498.5,173.9,500.4,173.9Z" style="fill:#707070"/><path d="M507.2,170.4a1.3,1.3,0,0,1,1.4,1.3,1.3,1.3,0,0,1-1.4,1.2c-.9,0-1.5-.5-1.5-1.2A1.3,1.3,0,0,1,507.2,170.4Zm-1.3,3.7h2.5v8.3h-2.5Z" style="fill:#707070"/><path d="M518.3,177.8v.8a4,4,0,1,1-7.9,0v-.7a4,4,0,0,1,7.9-.1Zm-5.4.1v.7c0,1,.4,2.1,1.4,2.1s1.5-1,1.5-2.1v-.7c0-1.1-.4-2.1-1.5-2.1S512.9,176.8,512.9,177.9Z" style="fill:#707070"/><path d="M520.2,174.1h2.4v1.4h.1a2.4,2.4,0,0,1,2.4-1.6c1.7,0,2.8,1,2.8,3v5.5h-2.5v-4.8c0-1.2-.6-1.6-1.3-1.6s-1.5.7-1.5,1.8v4.6h-2.4Z" style="fill:#707070"/><path d="M533.7,174.1h2.4v1.3h.2a1.9,1.9,0,0,1,1.9-1.5h.8v2.2h-.9a1.7,1.7,0,0,0-1.9,1.8v4.5h-2.5Z" style="fill:#707070"/><path d="M540,180c0-1.5,1.1-2.5,3-2.5h2v-.7c0-.7-.5-1-1.2-1s-1.1.3-1.1.8h-2.4c.1-1.3,1-2.7,3.5-2.7s3.6.8,3.6,3v5.5h-2.3v-1H545a2.3,2.3,0,0,1-2.2,1.1C541.1,182.5,540,181.6,540,180Zm5-.3v-.9h-1.3c-.8,0-1.2.4-1.2,1a1,1,0,0,0,1.1,1C544.3,180.8,545,180.3,545,179.7Z" style="fill:#707070"/><path d="M550.2,172.1h2.4v2.1h1.8v1.9h-1.8v3.5c0,.7.4,1,1.1,1h.8v1.8h-1.4c-2.1,0-3-.6-3-2.4v-3.9h-1.2v-1.9h1.3Z" style="fill:#707070"/><path d="M555.9,178.6v-.8a3.6,3.6,0,0,1,3.8-3.9,3.7,3.7,0,0,1,3.9,3.9v1h-5.3v.3a1.5,1.5,0,0,0,1.5,1.6c.8,0,1.4-.4,1.4-.9h2.3c-.1,1.1-1.1,2.8-3.7,2.8A3.7,3.7,0,0,1,555.9,178.6Zm5.3-1.3h0a1.4,1.4,0,0,0-1.4-1.6,1.4,1.4,0,0,0-1.5,1.6h2.9Z" style="fill:#707070"/><path d="M493.6,233.1a1.7,1.7,0,0,0,1.7,1.1,1.7,1.7,0,0,0,1.7-1.8,1.6,1.6,0,0,0-1.7-1.6,1.8,1.8,0,0,0-1.5.8h-2.3l.5-6.3h6.8v2.1H494l-.2,2.4h.1a2.3,2.3,0,0,1,2.1-.9,3.3,3.3,0,0,1,3.5,3.4c0,2.4-1.7,3.9-4.2,3.9s-3.9-1.4-4-3.1Z" style="fill:#707070"/><path d="M502.6,233.2a1.5,1.5,0,0,1,0,3,1.5,1.5,0,0,1,0-3Z" style="fill:#707070"/><path d="M513.4,225.3v2.1l-4.3,8.6h-2.7l4.4-8.5h-5.1v-2.1Z" style="fill:#707070"/><path d="M519.6,235.9h-2.2v-3.2h-3v-2.1h3v-3.1h2.2v3.1h3v2.1h-3Z" style="fill:#707070"/><path d="M531.3,227.5c2,0,3.3.8,3.3,2.5h-2.1a1.2,1.2,0,0,0-1.2-.9c-.7,0-1.1.4-1.1.9s1.3.8,2.2,1,2.5.9,2.5,2.3-1.3,2.8-3.7,2.8-3.6-1-3.6-2.5h2.5c0,.5.4.9,1.2.9s1.2-.4,1.2-.9-1-.7-2-.9-2.7-.9-2.7-2.5S529.5,227.5,531.3,227.5Z" style="fill:#707070"/><path d="M536.4,232.2v-.8a3.8,3.8,0,1,1,7.6,0v.9h-5.2v.4a1.4,1.4,0,0,0,1.5,1.6,1.3,1.3,0,0,0,1.4-.9H544c-.1,1.1-1.1,2.7-3.7,2.7A3.6,3.6,0,0,1,536.4,232.2Zm5.3-1.3h0a1.4,1.4,0,0,0-1.5-1.6,1.4,1.4,0,0,0-1.4,1.6h2.9Z" style="fill:#707070"/><path d="M545.5,231.4a3.6,3.6,0,0,1,3.9-3.9c2.2,0,3.6,1.3,3.6,3.2h-2.3a1.2,1.2,0,0,0-1.2-1.3c-1,0-1.5.8-1.5,2v.8c0,1.2.6,2,1.5,2a1.2,1.2,0,0,0,1.3-1.2H553c0,1.9-1.3,3.1-3.6,3.1a3.6,3.6,0,0,1-3.9-3.9Z" style="fill:#707070"/><path d="M562.3,231.4v.7c0,2.6-1.5,4-3.9,4a3.6,3.6,0,0,1-4-4v-.7a3.8,3.8,0,0,1,4-3.9A3.6,3.6,0,0,1,562.3,231.4Zm-5.4,0v.8c0,1,.4,2.1,1.5,2.1s1.4-1.1,1.4-2.1v-.8c0-1.1-.4-2-1.4-2S556.9,230.4,556.9,231.4Z" style="fill:#707070"/><path d="M564.2,227.6h2.4v1.5h.1a2.4,2.4,0,0,1,2.5-1.6c1.7,0,2.7,1,2.7,3V236h-2.5v-4.9c0-1.1-.6-1.5-1.3-1.5s-1.4.7-1.4,1.8V236h-2.5Z" style="fill:#707070"/><path d="M579.2,228.9h.1v-4.1h2.5V236h-2.4v-1.3h-.2a2.4,2.4,0,0,1-2.4,1.4c-1.8,0-3-1.4-3-3.8v-1c0-2.4,1.2-3.7,3.1-3.7A2.3,2.3,0,0,1,579.2,228.9Zm-2.9,2.6v.6c0,1.3.6,2,1.5,2s1.5-.6,1.5-1.9v-.8c0-1.2-.6-1.9-1.5-1.9S576.3,230.2,576.3,231.5Z" style="fill:#707070"/><path d="M587.3,227.5c1.9,0,3.3.8,3.3,2.5h-2.1a1.2,1.2,0,0,0-1.2-.9c-.7,0-1.1.4-1.1.9s1.3.8,2.2,1,2.5.9,2.5,2.3-1.3,2.8-3.7,2.8-3.6-1-3.6-2.5H586a1.2,1.2,0,0,0,1.3.9c.9,0,1.2-.4,1.2-.9s-1-.7-2-.9-2.7-.9-2.7-2.5S585.5,227.5,587.3,227.5Z" style="fill:#707070"/><path d="M491.5,248.5l7.5-4v2.4l-4.6,2.2h0l4.6,2.2v2.4l-7.5-3.8Z" style="fill:#707070"/><path d="M501.1,247.8c0-3.2,1.6-5.2,4.2-5.2s4.2,2,4.2,5.2v.5c0,3.2-1.6,5.3-4.2,5.3s-4.2-2.1-4.2-5.3Zm2.6.5c0,2,.6,3.2,1.6,3.2s1.7-1.2,1.7-3.2v-.5c0-2-.6-3.2-1.7-3.2s-1.6,1.2-1.6,3.2Z" style="fill:#707070"/><path d="M512.7,250.6a1.5,1.5,0,1,1,0,3,1.5,1.5,0,0,1,0-3Z" style="fill:#707070"/><path d="M521.7,245.4a1.3,1.3,0,0,0-1.4-.8c-1.3,0-2,1.5-1.9,3.2h.1a2.5,2.5,0,0,1,2.5-1.4,3.3,3.3,0,0,1,3.4,3.4c0,2.4-1.8,3.8-4.1,3.8a3.9,3.9,0,0,1-3.6-1.8,7,7,0,0,1-.8-3.5c0-3.8,1.7-5.7,4.5-5.7s3.7,1.5,3.7,2.8Zm-1.4,6.2a1.6,1.6,0,0,0,1.6-1.7,1.5,1.5,0,0,0-1.6-1.6,1.6,1.6,0,0,0-1.7,1.6A1.6,1.6,0,0,0,520.3,251.6Z" style="fill:#707070"/><path d="M525.7,245.2a2.6,2.6,0,1,1,5.1,0,2.6,2.6,0,1,1-5.1,0Zm5.2,2.7,2.8-5.2H536l-3.7,5.7-2.7,5h-2.3Zm-1.9-2.7c0-.7-.3-1.2-.8-1.2s-.7.5-.7,1.2.3,1.2.7,1.2S529,246,529,245.2Zm3.4,5.7a2.6,2.6,0,1,1,2.6,2.8A2.5,2.5,0,0,1,532.4,250.9Zm3.4,0c0-.7-.3-1.2-.8-1.2s-.8.5-.8,1.2.3,1.2.8,1.2S535.8,251.7,535.8,250.9Z" style="fill:#707070"/><path d="M542.3,248.8a3.6,3.6,0,0,1,3.8-3.9c2.2,0,3.6,1.4,3.6,3.2h-2.2a1.3,1.3,0,0,0-1.3-1.2c-.9,0-1.4.7-1.4,1.9v.8c0,1.3.5,2,1.4,2a1.2,1.2,0,0,0,1.3-1.2h2.2c0,1.9-1.3,3.2-3.6,3.2s-3.8-1.5-3.8-4Z" style="fill:#707070"/><path d="M559.1,248.8v.8a3.7,3.7,0,0,1-4,4,3.7,3.7,0,0,1-3.9-4v-.7a3.7,3.7,0,0,1,3.9-4A3.8,3.8,0,0,1,559.1,248.8Zm-5.4.1v.7c0,1,.3,2.1,1.4,2.1s1.4-1,1.4-2.1v-.7c0-1.1-.4-2.1-1.4-2.1S553.7,247.8,553.7,248.9Z" style="fill:#707070"/><path d="M560.9,245.1h2.4v1.4h.2a2.3,2.3,0,0,1,2.4-1.6c1.7,0,2.8,1,2.8,3v5.5h-2.5v-4.8c0-1.2-.7-1.6-1.3-1.6s-1.5.7-1.5,1.8v4.6h-2.5Z" style="fill:#707070"/><path d="M569.9,245.1h2.7l1.4,6.1h.1l1.5-6.1h2.6l-2.8,8.3h-2.9Z" style="fill:#707070"/><path d="M579.1,249.6v-.8a3.8,3.8,0,1,1,7.6,0v1h-5.2v.3a1.4,1.4,0,0,0,1.5,1.6,1.3,1.3,0,0,0,1.4-.9h2.3c-.1,1.1-1.1,2.8-3.7,2.8A3.7,3.7,0,0,1,579.1,249.6Zm5.3-1.3h0a1.4,1.4,0,0,0-1.5-1.6,1.4,1.4,0,0,0-1.4,1.6h2.9Z" style="fill:#707070"/><path d="M588.6,245.1h2.5v1.3h.2a1.9,1.9,0,0,1,1.9-1.5h.8v2.2h-.9a1.7,1.7,0,0,0-1.9,1.8v4.5h-2.6Z" style="fill:#707070"/><path d="M598.6,244.9c1.9,0,3.3.9,3.3,2.5h-2.2c0-.4-.4-.8-1.1-.8s-1.2.3-1.2.8,1.4.8,2.3,1,2.5.9,2.5,2.4-1.4,2.8-3.7,2.8-3.6-1.1-3.6-2.6h2.4a1.2,1.2,0,0,0,1.3.9c.8,0,1.2-.4,1.2-.8s-1-.8-2.1-1-2.6-.9-2.6-2.5S596.7,244.9,598.6,244.9Z" style="fill:#707070"/><path d="M605.4,241.4a1.2,1.2,0,0,1,1.4,1.3c0,.7-.5,1.2-1.4,1.2s-1.5-.5-1.5-1.2A1.3,1.3,0,0,1,605.4,241.4Zm-1.3,3.7h2.5v8.3h-2.5Z" style="fill:#707070"/><path d="M616.5,248.8v.8a4,4,0,1,1-7.9,0v-.7a3.7,3.7,0,0,1,4-4A3.7,3.7,0,0,1,616.5,248.8Zm-5.4.1v.7c0,1,.4,2.1,1.5,2.1s1.4-1,1.4-2.1v-.7c0-1.1-.4-2.1-1.4-2.1S611.1,247.8,611.1,248.9Z" style="fill:#707070"/><path d="M618.4,245.1h2.4v1.4h.1a2.5,2.5,0,0,1,2.5-1.6c1.6,0,2.7,1,2.7,3v5.5h-2.5v-4.8c0-1.2-.6-1.6-1.3-1.6s-1.4.7-1.4,1.8v4.6h-2.5Z" style="fill:#707070"/><path d="M631.9,245.1h2.5v1.3h.1a1.9,1.9,0,0,1,1.9-1.5h.8v2.2h-.9a1.7,1.7,0,0,0-1.9,1.8v4.5h-2.5Z" style="fill:#707070"/><path d="M638.2,251c0-1.5,1.1-2.5,3-2.5h2v-.7c0-.7-.5-1-1.2-1s-1.1.3-1.1.8h-2.4c.1-1.3,1-2.7,3.5-2.7s3.6.8,3.6,3v5.5h-2.3v-1h-.1a2.3,2.3,0,0,1-2.2,1.1A2.5,2.5,0,0,1,638.2,251Zm5-.3v-.9h-1.3c-.8,0-1.2.4-1.2,1a1,1,0,0,0,1.1,1C642.5,251.8,643.2,251.3,643.2,250.7Z" style="fill:#707070"/><path d="M648.4,243.1h2.4v2.1h1.8v1.9h-1.8v3.5c0,.7.4,1,1.1,1h.8v1.8h-1.4c-2.1,0-2.9-.6-2.9-2.4v-3.9h-1.3v-1.9h1.3Z" style="fill:#707070"/><path d="M654.1,249.6v-.8a3.6,3.6,0,0,1,3.8-3.9,3.7,3.7,0,0,1,3.9,3.9v1h-5.3v.3a1.5,1.5,0,0,0,1.5,1.6c.8,0,1.4-.4,1.4-.9h2.3c0,1.1-1.1,2.8-3.6,2.8A3.7,3.7,0,0,1,654.1,249.6Zm5.3-1.3h0a1.4,1.4,0,0,0-1.4-1.6,1.4,1.4,0,0,0-1.5,1.6h2.9Z" style="fill:#707070"/></svg>