<svg xmlns="http://www.w3.org/2000/svg" width="483.624" height="481.411"
    viewBox="0 0 127.959 127.373" fill="rgb(207 58 0)">
    <path
        d="M21.025 58.36c-5.666-1.558-13.606.322-15.053 6.142-1.734 6.97 4.615 12.457 10.184 13.493 5.954 1.108 21.34 5.075 53.287-16.349 29.075-19.498 34.262-21.875 43.856-21.875 12.384 0 17.83 9.4 12.915 24.152-3.85 11.553-17.031 15.405-26.646 9.81-9.614-5.596.61-15.08 4.312-10.489 3.702 4.592 6.058 4.757 10.543 4.875 4.485.118 9.198-6.45 8.102-11.198-1.096-4.747-4.654-12.281-19.17-7.923-14.516 4.359-13.241 5.183-34.189 17.653-20.947 12.47-32.445 20.695-46.755 20.93-15.615.256-23.638-10.45-21.055-24.805 1.626-9.033 10.271-16.073 20.486-14.899 11.218 1.29 12.946 6.145 11.542 9.206-1.671 3.645-6.686 2.838-12.359 1.277z" />
    <path
        d="M56.548 7.358c-5.286.011-11.258 1.314-14.328 2.344-6.14 2.059-22.182 9.669-18.122 15.802 3.233 4.885 13.67 17.91 15.935 27.414 1.2 5.035 1.027 7.883 2.558 8.19.765.153 4.907 2.091 16.051-2.704 6.608-2.843 11.44-7.03 11.939-7.833.64-1.033 1.077-1.741.4-3.332-6.303-14.832-3.56-25.916-4.226-34.477-.323-4.136-4.921-5.416-10.207-5.404zm-2.389 8.51c2.321.055 4.263.544 5.5 1.58 1.088.912.677 5.529.727 9.53.05 4 1.235 7.534.724 8.783-1.021 2.498-17.707 7.66-20.13 6.394-1.213-.633-2.027-4.052-4.114-7.519-2.087-3.467-6.342-8.345-6.154-9.503.375-2.316 8.316-6.001 13.303-7.573 3.547-1.117 7.16-1.763 10.144-1.692zm1.608 55.866s.782 10.638.907 18.942.537 16.143-.103 17.7c-1.107 2.689-11.362 10.653-15.895 7.227-3.02-2.283.281-4.208.397-5.974.115-1.766-1.159-5.378-4.856-4.78-3.698.598-6.54 3.375-5.865 8.765.675 5.39 3.725 8.558 11.475 8.189 7.75-.37 14.58-5.184 17.4-7.419 2.82-2.235 3.259-3.031 3.613-4.336.354-1.305-.368-9.334-1.046-20.03-.679-10.698.145-21.243.145-21.243zm12.347-4.728c.331.68-.128 9.935-.194 17.201-.067 7.333.228 19.813.45 21.765.29 2.562 6.468-.638 7.39-3.967.705-2.545-1.93-9.305-2.095-21.419a793.3 793.3 0 0 0-.43-17.671z" />
</svg>